<svg width="150" height="56" viewBox="0 0 150 56" fill="none" xmlns="http://www.w3.org/2000/svg">
<path d="M90.5222 23.7205C90.1488 23.9654 89.7529 24.345 89.3346 24.8634C88.766 25.5652 88.1919 26.3959 87.6079 27.3555C87.0253 28.3165 86.5101 29.299 86.0622 30.3044L75.1249 54.4489L66.6991 34.6942L57.153 54.4489L46.4403 30.2128C46.022 29.2374 45.5138 28.2463 44.9158 27.2395C44.3177 26.2341 43.7646 25.4263 43.2578 24.8162C42.8395 24.2977 42.3903 23.9081 41.913 23.6503C41.4343 23.3911 40.7618 23.139 39.8971 22.8955V22.4387H56.3458V22.8955C55.6888 23.1691 55.2185 23.4828 54.9336 23.8322C54.65 24.1831 54.5082 24.6486 54.5082 25.2272C54.5082 25.7156 54.643 26.2785 54.9125 26.9187L61.905 43.2904L66.4773 33.9165L63.8325 27.6061C63.0548 25.7772 62.3234 24.5125 61.6355 23.8107C61.3968 23.5673 61.1203 23.3768 60.8072 23.2407C60.4942 23.1032 60.0519 22.9886 59.4848 22.897V22.4401H75.7103V22.897C74.0973 23.1705 73.2901 24.0556 73.2901 25.5495C73.2901 25.9147 73.3716 26.4188 73.5358 27.059C73.7001 27.6992 73.9176 28.3552 74.1858 29.0255L79.7885 42.6073L80.9088 40.2742C82.0445 37.8666 82.9191 35.6409 83.5311 33.5986C84.1432 31.5562 84.4506 29.7573 84.4506 28.2034C84.4506 26.436 84.0758 25.0783 83.3304 24.133C83.0608 23.7978 82.7618 23.5458 82.4333 23.3782C82.1048 23.2106 81.6107 23.0502 80.9537 22.8984V22.4415H92.204V22.8984C91.4572 23.2035 90.8971 23.4785 90.5236 23.7219" fill="#312F2E"/>
<path d="M24.8269 54.6509V54.3215C26.9832 54.3215 27.1418 51.8767 27.1418 48.0154V31.2469C27.1418 27.387 26.2475 25.5108 24.4591 24.7875V24.4581L36.4015 22.4401H36.8226V48.0168C36.8226 51.8767 36.9799 54.3229 39.1376 54.3229V54.6523H24.8283L24.8269 54.6509Z" fill="#312F2E"/>
<path d="M23.1816 1.8934L22.3491 11.5323C20.058 6.64409 17.5073 4.1334 15.6865 4.1334C13.8657 4.1334 13.7085 6.91621 13.7085 11.9405V18.9942H19.4249L18.4633 22.5418H13.7085V47.2004C13.7085 51.5143 13.8699 54.1997 16.0796 54.1997V54.6136H1.85307V54.1997C4.06271 54.1997 4.22415 51.5128 4.22415 47.2004V22.5418H1.42209V20.3691L4.12869 19.2706C4.12869 9.69903 10.4277 1.62128 18.0281 1.62128C19.0178 1.62128 22.2452 1.75734 23.1816 1.8934Z" fill="#312F2E"/>
<path d="M25.9485 16.2329C25.9485 13.5933 28.088 11.412 30.7735 11.412C33.4591 11.412 35.4988 13.5947 35.4988 16.2329C35.4988 18.871 33.3594 21.1554 30.7735 21.1554C28.1876 21.1554 25.9485 18.9727 25.9485 16.2329Z" fill="#312F2E"/>
<path d="M118.008 54.6508V54.2312C120.164 54.2312 120.321 51.5314 120.321 47.1918V10.9808C120.321 6.6412 119.427 5.02565 117.64 4.21214V3.7925L129.578 1.62268H130V47.1918C130 51.5314 130.157 54.2312 132.313 54.2312V54.6508H118.009H118.008Z" fill="#312F2E"/>
<path d="M133.881 54.6508V54.2312C136.037 54.2312 136.195 51.5314 136.195 47.1918V10.9808C136.195 6.6412 135.3 5.02565 133.513 4.21214V3.7925L145.452 1.62268H145.873V47.1918C145.873 51.5314 146.03 54.2312 148.186 54.2312V54.6508H133.883H133.881Z" fill="#312F2E"/>
<path d="M116.022 35.9589H97.4445C96.8605 48.3362 108.736 53.7958 116.043 45.8355L116.02 46.0962C109.068 60.6662 87.0547 54.7697 87.6458 39.2387C88.3379 21.0766 117.393 14.7634 116.02 35.9574L116.022 35.9589ZM97.4445 35.4261H106.686C107.239 28.8636 107.013 24.1344 103.635 24.1344C99.7047 24.1344 97.4445 30.2686 97.4445 35.4261Z" fill="#312F2E"/>
</svg>
